<svg xmlns="http://www.w3.org/2000/svg" width="48" height="48" viewBox="0 0 48 48"><defs><style>.a{fill:#fff;stroke:#d84c4c;stroke-width:3px;}.b{fill:none;}.c{fill:#27a84a;}.d{fill:#d84c4c;}.e{stroke:none;}</style></defs><g transform="translate(-1230 -730)"><g class="a" transform="translate(1230 730)"><circle class="e" cx="24" cy="24" r="24"/><circle class="b" cx="24" cy="24" r="22.5"/></g><g transform="translate(1241 743)"><path class="b" d="M0,0H24V24H0Z"/><path class="c" d="M6,9H19.938l.5-2H8V5H21.72a1,1,0,0,1,.97,1.243l-2.5,10a1,1,0,0,1-.97.757H5a1,1,0,0,1-1-1V4H2V2H5A1,1,0,0,1,6,3ZM6,23a2,2,0,1,1,2-2A2,2,0,0,1,6,23Zm12,0a2,2,0,1,1,2-2A2,2,0,0,1,18,23Z"/></g><g transform="translate(1242 742)"><path class="b" d="M0,0H24V24H0Z"/></g><rect class="d" width="4" height="48" transform="translate(1262.33 731.403) rotate(25)"/></g></svg>