<svg xmlns="http://www.w3.org/2000/svg" width="28.001" height="28" viewBox="0 0 28.001 28">
  <g id="badge" transform="translate(-59.81 -63.927)">
    <path id="Path_41021" data-name="Path 41021" d="M87.6,85.377,83.193,81l.869-.628a2.393,2.393,0,0,0,.879-2.69l-.593-1.816a.939.939,0,0,1,0-.587l.593-1.816a2.393,2.393,0,0,0-.879-2.69l-1.554-1.123a.943.943,0,0,1-.347-.475l-.593-1.816a2.412,2.412,0,0,0-2.3-1.663h-1.92a.952.952,0,0,1-.561-.181l-1.554-1.123a2.424,2.424,0,0,0-2.844,0L70.835,65.51a.952.952,0,0,1-.561.181h-1.92a2.412,2.412,0,0,0-2.3,1.663l-.593,1.817a.944.944,0,0,1-.347.475l-1.554,1.123a2.393,2.393,0,0,0-.879,2.69l.593,1.816a.939.939,0,0,1,0,.587l-.593,1.817a2.393,2.393,0,0,0,.879,2.69l.869.628-4.4,4.38a.727.727,0,0,0,.251,1.193l3.537,1.376L65.2,91.464a.734.734,0,0,0,1.2.25l5.413-5.383.58.419a2.424,2.424,0,0,0,2.844,0l.58-.419,5.413,5.383a.734.734,0,0,0,1.2-.25l1.384-3.517,3.537-1.376a.726.726,0,0,0,.251-1.193ZM66.152,89.9l-1.092-2.777a.73.73,0,0,0-.415-.413l-2.792-1.087,3.623-3.6.577,1.768a2.412,2.412,0,0,0,2.3,1.663h1.92a.958.958,0,0,1,.3.049Zm7.1-4.325L71.7,84.448a2.413,2.413,0,0,0-1.422-.46h-1.92a.952.952,0,0,1-.908-.656l-.593-1.816a2.389,2.389,0,0,0-.825-1.161l-.041-.032-.013-.01L64.42,79.19a.944.944,0,0,1-.347-1.062l.593-1.816a2.38,2.38,0,0,0,0-1.487l-.593-1.816a.945.945,0,0,1,.347-1.062l1.554-1.123a2.392,2.392,0,0,0,.879-1.2l.593-1.816a.952.952,0,0,1,.908-.656h1.92a2.413,2.413,0,0,0,1.422-.46l1.553-1.123a.957.957,0,0,1,1.122,0l1.554,1.123a2.413,2.413,0,0,0,1.422.46h1.92a.952.952,0,0,1,.908.656l.593,1.816a2.391,2.391,0,0,0,.879,1.2L83.2,71.947a.944.944,0,0,1,.347,1.062l-.593,1.817a2.38,2.38,0,0,0,0,1.487l.593,1.816A.944.944,0,0,1,83.2,79.19l-1.553,1.123-.016.012-.037.029a2.389,2.389,0,0,0-.827,1.162l-.593,1.817a.952.952,0,0,1-.908.656h-1.92a2.413,2.413,0,0,0-1.422.46l-1.553,1.123a.957.957,0,0,1-1.123,0Zm9.728,1.135a.73.73,0,0,0-.415.413L81.469,89.9l-4.426-4.4a.957.957,0,0,1,.3-.049h1.92a2.412,2.412,0,0,0,2.3-1.663l.577-1.768,3.623,3.6Z" transform="translate(0 0)" fill="#1a8139"/>
    <path id="Path_41022" data-name="Path 41022" d="M175.767,147.423a.735.735,0,0,0,.43-.139.727.727,0,0,0,.291-.712l-.582-3.373,2.464-2.389a.727.727,0,0,0-.406-1.242l-3.406-.492L173.037,136a.734.734,0,0,0-1.313,0l-1.523,3.069-3.405.492a.727.727,0,0,0-.406,1.242l2.464,2.389-.582,3.373a.726.726,0,0,0,.291.712.736.736,0,0,0,.771.055l3.046-1.593,3.046,1.593A.735.735,0,0,0,175.767,147.423Zm-3.046-3.144a.736.736,0,0,0-.681,0l-2.073,1.084.4-2.3a.726.726,0,0,0-.211-.645l-1.677-1.626,2.318-.335a.732.732,0,0,0,.551-.4l1.037-2.089,1.037,2.089a.732.732,0,0,0,.551.4l2.318.335-1.677,1.626a.726.726,0,0,0-.211.645l.4,2.3Z" transform="translate(-98.57 -66.452)" fill="#1a8139"/>
  </g>
</svg>
